<svg width="36" height="34" viewBox="0 0 36 34" fill="none" xmlns="http://www.w3.org/2000/svg">
<path d="M12.4971 33.7719C13.9581 33.7719 15.1425 32.6461 15.1425 31.2574C15.1425 29.8686 13.9581 28.7429 12.4971 28.7429C11.0361 28.7429 9.85178 29.8686 9.85178 31.2574C9.85178 32.6461 11.0361 33.7719 12.4971 33.7719Z" fill="#195557"/>
<path d="M28.5693 33.7719C30.0303 33.7719 31.2146 32.6461 31.2146 31.2574C31.2146 29.8686 30.0303 28.7429 28.5693 28.7429C27.1083 28.7429 25.9239 29.8686 25.9239 31.2574C25.9239 32.6461 27.1083 33.7719 28.5693 33.7719Z" fill="#195557"/>
<path d="M35.7176 4.01107C35.6082 3.88287 35.4703 3.7793 35.3138 3.7078C35.1572 3.63631 34.986 3.59866 34.8123 3.59757H10.3338L11.098 5.8327H33.2721L30.1329 19.2435H12.4971L7.12406 3.07231C7.06594 2.90072 6.96502 2.74504 6.8299 2.61854C6.69478 2.49205 6.52947 2.39851 6.34808 2.34589L1.52762 0.937757C1.3794 0.894462 1.22366 0.879342 1.06929 0.89326C0.914918 0.907177 0.764944 0.94986 0.627928 1.01887C0.351212 1.15824 0.144077 1.3964 0.05209 1.68094C-0.0398971 1.96548 -0.0092011 2.2731 0.137425 2.53613C0.284051 2.79916 0.534597 2.99605 0.833945 3.08349L5.05479 4.31281L10.4514 20.5175L8.52317 22.0151L8.37032 22.1604C7.89338 22.6828 7.62304 23.347 7.60587 24.0385C7.5887 24.7301 7.82578 25.4057 8.27627 25.9489C8.59672 26.3193 9.00393 26.6133 9.46532 26.8074C9.92671 27.0015 10.4295 27.0902 10.9334 27.0665H30.5562C30.868 27.0665 31.1671 26.9487 31.3876 26.7392C31.608 26.5296 31.7319 26.2453 31.7319 25.9489C31.7319 25.6525 31.608 25.3683 31.3876 25.1587C31.1671 24.9491 30.868 24.8314 30.5562 24.8314H10.7453C10.6099 24.827 10.478 24.7894 10.3623 24.7224C10.2466 24.6554 10.1511 24.5612 10.0849 24.4489C10.0187 24.3365 9.98409 24.2098 9.98444 24.0811C9.9848 23.9523 10.0201 23.8258 10.0869 23.7138L12.9204 21.4786H31.0735C31.3453 21.485 31.611 21.4016 31.8253 21.2426C32.0397 21.0837 32.1895 20.859 32.2492 20.6069L35.9763 4.961C36.012 4.79439 36.0073 4.62222 35.9625 4.45761C35.9177 4.29299 35.8339 4.14027 35.7176 4.01107V4.01107Z" fill="#195557"/>
</svg>
